<svg xmlns="http://www.w3.org/2000/svg" xmlns:xlink="http://www.w3.org/1999/xlink" viewBox="0 0 77.38 64.49"><defs><style>.cls-1{fill:url(#linear-gradient);}.cls-2{fill:url(#linear-gradient-2);}.cls-3{fill:url(#linear-gradient-3);}.cls-4{fill:url(#linear-gradient-4);}.cls-5{fill:url(#linear-gradient-5);}.cls-6{fill:url(#linear-gradient-6);}.cls-7{fill:url(#linear-gradient-7);}</style><linearGradient id="linear-gradient" x1="38.69" y1="-67.82" x2="38.69" y2="-132.31" gradientTransform="matrix(1, 0, 0, -1, 0, -67.82)" gradientUnits="userSpaceOnUse"><stop offset="0" stop-color="#95bff8"/><stop offset="0.56" stop-color="#84adef"/><stop offset="1" stop-color="#7ca4eb"/></linearGradient><linearGradient id="linear-gradient-2" x1="38.69" y1="-71.04" x2="38.69" y2="-129.08" gradientTransform="matrix(1, 0, 0, -1, 0, -67.82)" gradientUnits="userSpaceOnUse"><stop offset="0" stop-color="#e7f4fc"/><stop offset="1" stop-color="#deeffc"/></linearGradient><linearGradient id="linear-gradient-3" x1="38.69" y1="-74.27" x2="38.69" y2="-125.86" gradientTransform="matrix(1, 0, 0, -1, 0, -67.82)" gradientUnits="userSpaceOnUse"><stop offset="0" stop-color="#cee9f9"/><stop offset="1" stop-color="#bbdff8"/></linearGradient><linearGradient id="linear-gradient-4" x1="53.2" y1="-106.98" x2="53.2" y2="-128.61" gradientTransform="matrix(1, 0, 0, -1, 0, -67.82)" gradientUnits="userSpaceOnUse"><stop offset="0" stop-color="#8d470d"/><stop offset="1" stop-color="#7c3d09"/></linearGradient><linearGradient id="linear-gradient-5" x1="53.2" y1="-80.72" x2="53.2" y2="-116.18" gradientTransform="matrix(1, 0, 0, -1, 0, -67.82)" gradientUnits="userSpaceOnUse"><stop offset="0" stop-color="#f0a829"/><stop offset="1" stop-color="#c7671a"/></linearGradient><linearGradient id="linear-gradient-6" x1="53.2" y1="-83.94" x2="53.2" y2="-112.96" gradientTransform="matrix(1, 0, 0, -1, 0, -67.82)" gradientUnits="userSpaceOnUse"><stop offset="0" stop-color="#ffeba8"/><stop offset="1" stop-color="#f8be27"/></linearGradient><linearGradient id="linear-gradient-7" x1="53.2" y1="-87.16" x2="53.2" y2="-109.74" gradientTransform="matrix(1, 0, 0, -1, 0, -67.82)" gradientUnits="userSpaceOnUse"><stop offset="0" stop-color="#ffc30f"/><stop offset="1" stop-color="#f5ae0d"/></linearGradient></defs><title>Asset 26</title><g id="Layer_2" data-name="Layer 2"><g id="Layer_2-2" data-name="Layer 2"><rect class="cls-1" width="77.38" height="64.49"/><rect class="cls-2" x="3.22" y="3.22" width="70.94" height="58.04"/><rect class="cls-3" x="6.45" y="6.45" width="64.49" height="51.59"/><polygon class="cls-4" points="59.97 39.01 53.2 42.24 46.43 39.01 38.37 56.75 44.17 55.78 47.08 60.94 53.2 47.72 59.33 60.94 62.23 55.78 68.03 56.75 59.97 39.01"/><circle class="cls-5" cx="53.2" cy="30.63" r="17.73"/><path class="cls-6" d="M53.2,45.14A14.51,14.51,0,1,1,67.71,30.63,14.45,14.45,0,0,1,53.2,45.14Z"/><path class="cls-7" d="M53.2,41.92A11.29,11.29,0,1,1,64.49,30.63,11.43,11.43,0,0,1,53.2,41.92Z"/></g></g></svg>