<svg viewBox="0 0 24 24" fill="none" xmlns="http://www.w3.org/2000/svg">
<g clip-path="url(#clip0_3435_8432)">
<path d="M18 5.66667C18 4.74619 17.2538 4 16.3333 4H5C3.89543 4 3 4.89543 3 6V16C3 17.1046 3.89543 18 5 18H8C8.27614 18 8.5 17.7761 8.5 17.5V17.5C8.5 17.2239 8.27614 17 8 17H5C4.44772 17 4 16.5523 4 16V6C4 5.44772 4.44772 5 5 5H16.25C16.6642 5 17 5.33579 17 5.75V6C17 6.27614 17.2239 6.5 17.5 6.5V6.5C17.7761 6.5 18 6.27614 18 6V5.66667Z" fill="black"/>
<path fill-rule="evenodd" clip-rule="evenodd" d="M19.1449 14.7973C19.6847 13.999 20 13.0363 20 12C20 9.23858 17.7614 7 15 7C12.2386 7 10 9.23858 10 12C10 13.1403 10.3817 14.1914 11.0243 15.0326L8.96539 18.7386C8.67561 19.2602 9.12948 19.882 9.71458 19.765L10.3284 19.6422L11.2789 19.4521L11.8739 20.6422C12.1319 21.1582 12.8681 21.1582 13.1261 20.6422L13.8578 19.1789L13.8652 19.164L13.8714 19.1486L14.7336 16.993C14.8218 16.9977 14.9106 17 15 17C15.1099 17 15.219 16.9965 15.3272 16.9895L16.6491 19.1926L17.3739 20.6422C17.6319 21.1582 18.3681 21.1582 18.6261 20.6422L19.2211 19.4521L20.1716 19.6422L20.7566 19.7592C21.3525 19.8784 21.8067 19.2338 21.4941 18.7127L19.1449 14.7973ZM18.6095 15.46C17.9607 16.1367 17.1235 16.6312 16.1821 16.8594L17.343 18.7942L17.3509 18.8074L17.3578 18.8211L18 20.1056L18.5739 18.9577C18.6949 18.7157 18.9629 18.5847 19.2282 18.6377L20.3284 18.8578L20.6918 18.9304L18.6095 15.46ZM11.5918 15.6584C12.2325 16.2556 13.0302 16.6864 13.9163 16.8822L13.1348 18.836L12.5 20.1056L11.9261 18.9577C11.8051 18.7157 11.5371 18.5847 11.2718 18.6377L10.1716 18.8578L9.76973 18.9381L11.5918 15.6584ZM15 16C17.2091 16 19 14.2091 19 12C19 9.79086 17.2091 8 15 8C12.7909 8 11 9.79086 11 12C11 14.2091 12.7909 16 15 16Z" fill="black"/>
</g>
<defs>
<clipPath id="clip0_3435_8432">
<rect width="24" height="24" fill="white"/>
</clipPath>
</defs>
</svg>
